<?xml version="1.0" encoding="UTF-8"?>
<svg width="17px" height="21px" viewBox="0 0 17 21" version="1.1" xmlns="http://www.w3.org/2000/svg" xmlns:xlink="http://www.w3.org/1999/xlink">
    <title>Icon Profile</title>
    <g id="Symbols" stroke="none" stroke-width="1" fill="none" fill-rule="evenodd">
        <g id="Icon-profile" fill="#C8F0F0">
            <path d="M13.396,9.88235294 C15.3864342,9.88235294 17,11.5108074 17,13.5196078 L16.998,13.588 L17,13.5882353 L17,17.2941176 L16.998,17.294 L17,17.3627451 C17,19.3067455 15.4888562,20.8945426 13.5874047,20.9949583 L13.464,20.998 L13.464,21 L3.536,21 C1.57637131,20.9621924 0,19.348258 0,17.3627451 L0,13.7254902 C0.000212401708,13.7029075 0,13.6799102 0,13.6568627 C0,11.6480623 1.61356576,10.0196078 3.604,10.0196078 C4.2815148,10.0196078 4.91536477,10.2082842 5.45677728,10.5364143 L5.38638078,10.501621 C6.40528257,11.0495599 7.42048897,11.3235294 8.432,11.3235294 C9.44351103,11.3235294 10.4461484,11.0290878 11.439912,10.4402045 L11.4392725,10.464611 C12.0027691,10.096243 12.6746346,9.88235294 13.396,9.88235294 Z M8.5,0 C11.2415415,0 13.464,2.24296562 13.464,5.00980392 C13.464,7.77664223 11.2415415,10.0196078 8.5,10.0196078 C5.7584585,10.0196078 3.536,7.77664223 3.536,5.00980392 C3.536,2.24296562 5.7584585,0 8.5,0 Z" id="Combined-Shape"></path>
        </g>
    </g>
</svg>