<?xml version="1.0" encoding="UTF-8"?>
<svg width="37px" height="21px" viewBox="0 0 37 21" version="1.1" xmlns="http://www.w3.org/2000/svg" xmlns:xlink="http://www.w3.org/1999/xlink">
    <title>Icon Explore (NEW)</title>
    <g id="Symbols" stroke="none" stroke-width="1" fill="none" fill-rule="evenodd">
        <g id="Icon-Explore-(NEW)" fill="#FFFFFF">
            <path d="M34.2064762,7.52941176 C35.7229975,7.52941176 36.952381,8.77013899 36.952381,10.3006536 L36.95,10.352 L36.952381,10.3529412 L36.952381,13.1764706 L36.95,13.176 L36.952381,13.2287582 C36.952381,14.702587 35.8123766,15.9076968 34.3737491,15.9949424 L34.258,15.997 L34.2582857,16 L28.9999876,16 L29,12.8235294 L28.997381,12.823 L29,12.7385621 C29,10.4117083 27.2513728,8.49703682 25.0079876,8.25998647 C25.4406674,7.90203033 25.9841539,7.67509665 26.5786319,7.63904449 L26.7459048,7.63398693 C27.2619697,7.63398693 27.7447838,7.77766415 28.1572165,8.02754542 L28.1039092,8.00123504 C28.8802153,8.41871233 29.6537059,8.62745098 30.424381,8.62745098 C31.195056,8.62745098 31.9589702,8.40311449 32.7161234,7.95444152 L32.7160679,7.97275479 C33.1453101,7.69226639 33.6570487,7.52941176 34.2064762,7.52941176 Z M30.4761905,0 C32.564984,0 34.2582857,1.70892618 34.2582857,3.81699346 C34.2582857,5.92506074 32.564984,7.63398693 30.4761905,7.63398693 C28.387397,7.63398693 26.6940952,5.92506074 26.6940952,3.81699346 C26.6940952,1.70892618 28.387397,0 30.4761905,0 Z" id="Combined-Shape"></path>
            <path d="M10.2064762,7.52941176 C10.9990085,7.52941176 11.7131207,7.86826626 12.2143292,8.41025068 L12.2044248,8.4101303 C9.83760282,8.52082356 7.95238095,10.4924701 7.95238095,12.9084967 L7.95238095,12.9084967 L7.95438095,12.993 L7.95238095,12.9934641 L7.952,16 L2.69409524,16 C1.20173031,15.9718959 0,14.7419616 0,13.2287582 L0,10.4575163 L0.002,10.457 L0,10.4052288 C0,8.93139988 1.14000439,7.72629016 2.5786319,7.63904449 L2.74590476,7.63398693 C3.26196966,7.63398693 3.74478376,7.77766415 4.1572165,8.02754542 L4.10390917,8.00123504 C4.88021529,8.41871233 5.65370588,8.62745098 6.42438095,8.62745098 C7.19505602,8.62745098 7.95897018,8.40311449 8.71612344,7.95444152 L8.71606793,7.97275479 C9.14531011,7.69226639 9.65704867,7.52941176 10.2064762,7.52941176 Z M6.47619048,0 C8.564984,0 10.2582857,1.70892618 10.2582857,3.81699346 C10.2582857,5.92506074 8.564984,7.63398693 6.47619048,7.63398693 C4.38739695,7.63398693 2.69409524,5.92506074 2.69409524,3.81699346 C2.69409524,1.70892618 4.38739695,0 6.47619048,0 Z" id="Combined-Shape"></path>
            <g id="Icon-profile" transform="translate(9.976190, 0.000000)">
                <path d="M13.396,9.88235294 C15.3864342,9.88235294 17,11.5108074 17,13.5196078 L16.998,13.588 L17,13.5882353 L17,17.2941176 L16.998,17.294 L17,17.3627451 C17,19.3067455 15.4888562,20.8945426 13.5874047,20.9949583 L13.464,20.998 L13.464,21 L3.536,21 C1.57637131,20.9621924 0,19.348258 0,17.3627451 L0,13.7254902 C0.000212401708,13.7029075 0,13.6799102 0,13.6568627 C0,11.6480623 1.61356576,10.0196078 3.604,10.0196078 C4.2815148,10.0196078 4.91536477,10.2082842 5.45677728,10.5364143 L5.38638078,10.501621 C6.40528257,11.0495599 7.42048897,11.3235294 8.432,11.3235294 C9.44351103,11.3235294 10.4461484,11.0290878 11.439912,10.4402045 L11.4392725,10.464611 C12.0027691,10.096243 12.6746346,9.88235294 13.396,9.88235294 Z M8.5,0 C11.2415415,0 13.464,2.24296562 13.464,5.00980392 C13.464,7.77664223 11.2415415,10.0196078 8.5,10.0196078 C5.7584585,10.0196078 3.536,7.77664223 3.536,5.00980392 C3.536,2.24296562 5.7584585,0 8.5,0 Z" id="Combined-Shape"></path>
            </g>
        </g>
    </g>
</svg>